HIERARCHY
ROOT Hip
{
    OFFSET 0.0 0.0 0.0
    CHANNELS 6 Xposition Yposition Zposition Zrotation Xrotation Yrotation
    JOINT RightHip
    {
        OFFSET -6.154644966125488 0.0 0.0
        CHANNELS 3 Zrotation Xrotation Yrotation
        JOINT RightKnee
        {
            OFFSET 0.0 0.0 -26.456573486328125
            CHANNELS 3 Zrotation Xrotation Yrotation
            JOINT RightAnkle
            {
                OFFSET 0.0 0.0 -30.483675003051758
                CHANNELS 3 Zrotation Xrotation Yrotation
                End Site
                {
                    OFFSET 0.0 -12.193470001220703 0.0
                }
            }
        }
    }
    JOINT LeftHip
    {
        OFFSET 6.154644966125488 0.0 0.0
        CHANNELS 3 Zrotation Xrotation Yrotation
        JOINT LeftKnee
        {
            OFFSET 0.0 0.0 -26.456573486328125
            CHANNELS 3 Zrotation Xrotation Yrotation
            JOINT LeftAnkle
            {
                OFFSET 0.0 0.0 -30.483675003051758
                CHANNELS 3 Zrotation Xrotation Yrotation
                End Site
                {
                    OFFSET 0.0 -12.193470001220703 0.0
                }
            }
        }
    }
    JOINT Spine
    {
        OFFSET 0.0 0.0 19.46894645690918
        CHANNELS 3 Zrotation Xrotation Yrotation
        JOINT Thorax
        {
            OFFSET 0.0 0.0 19.795303344726562
            CHANNELS 3 Zrotation Xrotation Yrotation
            JOINT Neck
            {
                OFFSET 0.0 0.0 11.703651428222656
                CHANNELS 3 Zrotation Xrotation Yrotation
                End Site
                {
                    OFFSET 0.0 0.0 4.681460857391357
                }
            }
            JOINT LeftShoulder
            {
                OFFSET 9.203409194946289 0.0 0.0
                CHANNELS 3 Zrotation Xrotation Yrotation
                JOINT LeftElbow
                {
                    OFFSET 24.42725944519043 0.0 0.0
                    CHANNELS 3 Zrotation Xrotation Yrotation
                    JOINT LeftWrist
                    {
                        OFFSET 14.680553436279297 0.0 0.0
                        CHANNELS 3 Zrotation Xrotation Yrotation
                        End Site
                        {
                            OFFSET 5.872220993041992 0.0 0.0
                        }
                    }
                }
            }
            JOINT RightShoulder
            {
                OFFSET -9.203409194946289 0.0 0.0
                CHANNELS 3 Zrotation Xrotation Yrotation
                JOINT RightElbow
                {
                    OFFSET -24.42725944519043 0.0 0.0
                    CHANNELS 3 Zrotation Xrotation Yrotation
                    JOINT RightWrist
                    {
                        OFFSET -14.680553436279297 0.0 0.0
                        CHANNELS 3 Zrotation Xrotation Yrotation
                        End Site
                        {
                            OFFSET -5.872220993041992 0.0 0.0
                        }
                    }
                }
            }
        }
    }
}
MOTION
Frames: 9
Frame Time: 0.03333333333333333
0.0 0.0 69.04319763183594 168.60227738115097 0.12165632008548073 -5.118766755896621 16.834364081522086 -10.148469950223161 11.897121541695027 -21.725386512646004 26.300743396865755 -6.791011654564812 0.0 0.0 7.95138670365879e-16 -8.828820202713523 -4.727897343380122 2.6539890767539833 13.615637343380687 14.252174620327942 -0.9060260153863845 -7.951386703658792e-16 0.0 0.0 -0.31013309916655885 4.3497832884380045 -0.837349396710681 -4.0662094659532855 1.4878589284814425e-07 -6.557750803837059e-08 144.903588523605 14.49537495268339 -33.44953848506732 9.447086128930199 9.660190475926639 95.33960781110353 -39.82431338438193 1.1178533135179673e-06 1.6547895458080033e-06 -1.7655625192200634e-31 3.1805546814635168e-15 6.3611093629270335e-15 54.44140750629902 0.38064167913571195 -90.07772127552823 123.59765543492817 3.504583153262121e-06 4.033065242858661e-06 3.972515668245143e-31 -6.361109362927033e-15 7.156248033292912e-15
0.0 0.0 69.04319763183594 168.52178640148034 0.09613639388230881 -5.284190105053302 17.044620799910227 -10.062753328569125 12.094058823786357 -21.851628045011584 26.305216212090635 -6.795536170021245 0.0 0.0 -7.951386703658791e-16 -8.785605676850953 -4.621471380661615 2.8279303417431287 13.637214103534227 14.301468270635665 -0.9108151802837469 0.0 0.0 -3.9756933518293955e-16 -0.32021533856648005 4.316206561744712 -0.9486846650518508 -3.9083372764026754 -5.03684060380381e-07 7.969881519571193e-07 144.60588281403702 15.236929657434095 -34.08869528126071 9.138599170795251 9.69686883027739 95.63867167520102 -39.5475339844685 -5.441915672547116e-07 5.493888266222347e-06 0.0 3.1805546814635168e-15 0.0 54.55243054712917 0.29875273461893 -90.18145761223886 123.2124980077991 -8.642724843720434e-07 2.811307682280919e-06 -7.951386703658792e-16 -6.3611093629270335e-15 -1.5902773407317584e-15
0.0 0.0 69.04319763183594 168.92771786976851 0.07250535187506967 -5.26253473043887 17.009023303442785 -10.03803559504975 12.090495575769582 -22.023034828301267 26.287223837174793 -6.846977673394562 0.0 0.0 0.0 -8.828382329988628 -4.605602694038576 2.403538011865972 13.761015358210047 14.336977635943516 -0.6343819153863717 0.0 0.0 3.975693351829395e-16 -0.3211851939608266 4.320701023243965 -0.8425262040518503 -4.291501959374117 -1.6425258152112013e-07 1.192396423686056e-07 144.89525346340037 14.940321578092243 -34.06380220762677 9.2350635795528 9.680844360341418 95.45861972493645 -39.600620388241246 1.8864764605728311e-07 2.8731142862563647e-07 3.180554681463516e-15 1.590277340731758e-15 -4.4139062980501586e-32 54.6308517915192 0.14749989621746168 -90.23707408394331 123.56307765578532 2.6917685794250723e-06 3.4361498987919144e-06 1.5902773407317584e-15 5.565970692561154e-15 -1.5902773407317584e-15
0.0 0.0 69.04319763183594 168.72745320719739 0.137464382329707 -5.077487683167599 16.64968828340559 -10.19872119020061 11.779667160325422 -21.516038856689963 26.12734945157511 -6.793272210412013 0.0 0.0 7.951386703658792e-16 -8.802826518609374 -4.702068720361255 2.198400276515947 13.939994150458805 14.399772422337765 -0.6464664271563398 -5.517382872562698e-33 -1.5902773407317584e-15 -3.975693351829396e-16 -0.2572746137523727 4.346958445518707 -0.7321181236574396 -4.265540237114371 -7.886268161792903e-07 -3.7804983956476994e-07 145.0542737922926 14.36378479684837 -33.27219063580619 8.35981300413899 9.563928152359633 95.74333082155937 -39.28725960911296 -6.484409311068361e-08 2.1313450760911546e-06 0.0 0.0 6.361109362927035e-15 54.5433569637552 0.2141354605504129 -90.22648047934663 123.49878554280072 -6.777368620132491e-06 4.479055546044254e-06 1.5902773407317582e-15 5.5659706925611536e-15 -7.724336021587778e-32
0.0 0.0 69.04319763183594 168.7072800375819 -0.07403120135049442 -5.076220096197205 16.87216867356814 -9.796149333694835 11.778653987230639 -21.983817489172917 26.647700735512597 -6.860690222756311 0.0 0.0 -1.5902773407317584e-15 -9.397992794797021 -4.657473052950634 2.124036496405224 14.279198889548743 14.924507371127632 -0.636705404730275 0.0 0.0 3.975693351829396e-16 -0.31916278537691073 4.475275711970169 -0.6786519160910687 -4.269207940934434 3.0366844265140855e-07 6.682859808001632e-07 139.99106580228414 16.46163226854654 -30.80001353225556 11.814450928251201 10.165235825334815 95.23816365352242 -41.501251103876356 2.297963202892323e-06 -1.4213615860713664e-06 -3.1805546814635168e-15 0.0 0.0 52.57825550382391 -2.311083441381736 -92.55289967890825 124.7350883196452 -2.7660699302134117e-06 -9.617124906308994e-07 7.951386703658796e-16 6.361109362927035e-15 -3.1805546814635176e-15
0.0 0.0 69.04319763183594 169.51629212646202 -0.1452662251508259 -4.897781821329286 16.92496924355255 -10.106876975133835 12.024743504711713 -21.733570216938187 27.046369844428703 -7.3498346007516915 3.1805546814635168e-15 -2.2069531490250793e-32 -7.951386703658792e-16 -9.21750255859048 -4.407067839435608 1.9215573793393441 13.957767774523367 14.938675774495346 -0.20286353129817652 0.0 0.0 0.0 -0.3778975191925811 4.560659509621977 -0.39834575310016024 -4.564952147341101 2.066369699917516e-07 1.9307378074113432e-07 136.41917804265915 18.736577507763904 -30.447732081121323 11.380454056744574 10.099196734753999 94.6176122475133 -41.64395728119462 -1.125289283350152e-07 3.172063596553191e-07 3.1805546814635168e-15 1.5902773407317582e-15 -6.3611093629270335e-15 52.186790906373794 -2.8289805777278776 -92.38673048148112 126.44322669778668 4.211106582906356e-06 -1.7803386237652286e-06 7.951386703658792e-16 1.1034765745125397e-32 1.5902773407317584e-15
0.0 0.0 69.04319763183594 169.4548543031902 -0.1466700808983209 -4.907823312918304 16.877342314881133 -10.093354465243033 11.994580646965463 -21.737757768144178 27.021750396635877 -7.294000189423824 -3.1805546814635168e-15 4.4139062980501586e-32 -1.5902773407317584e-15 -9.206779373886427 -4.427781309526418 1.9280990504423023 14.002314344704764 14.971333213360893 -0.2083762409343428 0.0 0.0 0.0 -0.3789345953377296 4.570919794788876 -0.38542698902098604 -4.539771396834652 -6.480516822909154e-07 2.346894721417991e-07 136.25291902586608 18.84272228682333 -30.37447797515552 9.72769496736456 9.809342153145632 94.58769558424116 -41.535631373823236 -1.0647294939794207e-06 4.163217680686636e-07 0.0 -1.5902773407317584e-15 0.0 52.229842532817536 -2.8246379601800036 -92.41153488155078 126.46008785202338 2.672722394286027e-06 -2.182857885409306e-06 -7.951386703658792e-16 -7.951386703658792e-16 -5.517382872562698e-33
0.0 0.0 69.04319763183594 169.6616524128365 -0.16690088197218278 -4.721322557355552 16.263464635906846 -10.056083820292562 11.559680896785402 -21.425087918048945 26.787079130439704 -7.212342584110998 0.0 0.0 -7.951386703658792e-16 -9.110499096481377 -4.409586524978205 1.7787634485634072 14.398413734788512 14.891209110171376 -0.8229794913892633 0.0 0.0 7.951386703658791e-16 -0.31825655246909673 4.673393866198849 -0.1399801988164627 -4.918820643988395 -6.223475153444303e-07 2.14077827680509e-07 139.192078928228 16.920176374281404 -31.00094737269644 8.556999872736755 9.432485177994382 94.07470827025436 -41.84051183718872 -2.8773024882060753e-07 -4.318575596355486e-06 -3.1805546814635168e-15 0.0 0.0 50.8350877549157 -2.812389383746023 -92.5035286552399 127.6997581163317 2.722938533622659e-06 -1.8514397884108066e-06 -4.770832022195275e-15 1.3241718894150476e-31 -3.1805546814635168e-15
0.0 0.0 69.04319763183594 169.53107579591932 -0.15850092991443504 -4.713141050631124 16.25621473582259 -10.046570816258873 11.508620021091753 -21.44427471240865 26.74814524505002 -7.139895582981567 0.0 0.0 0.0 -9.15388302544961 -4.466271063103925 1.7619920575739936 14.483877447234024 14.969871178866152 -0.8266083110060063 -7.951386703658792e-16 1.5902773407317584e-15 1.1034765745125397e-32 -0.3162944010267335 4.678182253590152 -0.13826452849030094 -4.843486771223995 9.382186470477161e-08 -5.993038587010896e-07 139.1366026310213 16.99168135720028 -30.959014578827926 7.122676031309552 9.289560699143012 94.33695284434698 -41.54031069850685 -3.0940511268631263e-08 -3.1247238675224683e-06 0.0 -1.5902773407317584e-15 0.0 50.94464767825297 -2.794442321846998 -92.53839491542007 127.73042713684345 7.154779494151616e-07 4.511758755999436e-07 -2.3854160110976376e-15 7.951386703658792e-16 7.951386703658792e-16
